<svg xmlns="http://www.w3.org/2000/svg" aria-hidden="true" style="position:absolute;width:0;height:0;overflow:hidden">
  <defs>
    <symbol id="icon-facebook-1" viewBox="0 0 64 64">
      <path d="M42.659 10.627h5.843V.451C47.494.312 44.027 0 39.99 0c-8.424 0-14.195 5.299-14.195 15.037V24h-9.296v11.376h9.296V64h11.397V35.379h8.92l1.416-11.376H37.189v-7.837c.003-3.288.888-5.539 5.469-5.539z"/>
    </symbol>
    <symbol id="icon-linkedin-1" viewBox="0 0 64 64">
      <path d="M63.984 64v-.003H64V40.525c0-11.483-2.472-20.328-15.896-20.328-6.454 0-10.784 3.541-12.552 6.899h-.187v-5.827H22.637v42.728H35.89V42.84c0-5.571 1.056-10.957 7.955-10.957 6.798 0 6.899 6.357 6.899 11.315v20.803h13.24zM1.056 21.272h13.269V64H1.056V21.272zM7.685 0C3.442 0 0 3.443 0 7.685s3.443 7.757 7.685 7.757c4.243 0 7.685-3.515 7.685-7.757C15.367 3.442 11.925 0 7.685 0z"/>
    </symbol>
    <symbol id="icon-twitter-1" viewBox="0 0 64 64">
      <path d="M64 12.156a27.355 27.355 0 0 1-7.56 2.072 13.047 13.047 0 0 0 5.772-7.252 26.22 26.22 0 0 1-8.32 3.176A13.148 13.148 0 0 0 44.308 6c-7.264 0-13.112 5.896-13.112 13.124 0 1.04.088 2.04.304 2.992-10.908-.532-20.56-5.76-27.044-13.724-1.132 1.964-1.796 4.212-1.796 6.632 0 4.544 2.34 8.572 5.828 10.904-2.108-.04-4.176-.652-5.928-1.616v.144c0 6.376 4.548 11.672 10.512 12.892-1.068.292-2.232.432-3.44.432-.84 0-1.688-.048-2.484-.224 1.7 5.196 6.524 9.016 12.26 9.14A26.363 26.363 0 0 1 3.14 52.292c-1.076 0-2.108-.048-3.14-.18C5.812 55.86 12.7 58 20.128 58c24.144 0 37.344-20 37.344-37.336 0-.58-.02-1.14-.048-1.696 2.604-1.848 4.792-4.156 6.576-6.812z"/>
    </symbol>
    <symbol id="icon-instagram-2" viewBox="0 0 64 64">
      <path d="M63.937 18.816c-.15-3.401-.7-5.738-1.487-7.764a15.63 15.63 0 0 0-3.701-5.676 15.747 15.747 0 0 0-5.664-3.688C51.048.9 48.722.35 45.321.2 41.895.037 40.808 0 32.118 0s-9.777.038-13.19.188c-3.401.15-5.738.7-7.764 1.488a15.614 15.614 0 0 0-5.676 3.701A15.747 15.747 0 0 0 1.8 11.041C1.012 13.079.462 15.404.312 18.805c-.163 3.426-.2 4.514-.2 13.203S.15 41.785.3 45.198c.15 3.401.7 5.738 1.488 7.764a15.798 15.798 0 0 0 3.7 5.676 15.747 15.747 0 0 0 5.664 3.688c2.038.788 4.363 1.338 7.764 1.487 3.413.15 4.501.187 13.19.187s9.777-.037 13.19-.187c3.401-.15 5.738-.7 7.764-1.487a16.373 16.373 0 0 0 9.365-9.364c.787-2.038 1.338-4.364 1.488-7.764.15-3.413.187-4.501.187-13.19s-.013-9.777-.163-13.19zm-5.763 26.13c-.138 3.126-.663 4.813-1.1 5.939a10.613 10.613 0 0 1-6.077 6.076c-1.125.438-2.825.963-5.939 1.1-3.376.15-4.388.188-12.927.188s-9.564-.037-12.928-.188c-3.126-.137-4.813-.662-5.939-1.1a9.86 9.86 0 0 1-3.675-2.388 9.952 9.952 0 0 1-2.388-3.675c-.438-1.125-.963-2.826-1.1-5.939-.15-3.376-.188-4.389-.188-12.928s.037-9.564.188-12.927c.137-3.126.662-4.813 1.1-5.939a9.726 9.726 0 0 1 2.401-3.676 9.944 9.944 0 0 1 3.675-2.388c1.125-.438 2.826-.963 5.939-1.1 3.376-.15 4.389-.188 12.927-.188 8.552 0 9.565.038 12.928.188 3.126.138 4.813.663 5.939 1.1a9.835 9.835 0 0 1 3.675 2.388 9.948 9.948 0 0 1 2.388 3.676c.437 1.125.962 2.825 1.1 5.939.15 3.376.187 4.388.187 12.927s-.038 9.539-.187 12.915z"/>
      <path d="M32.119 15.565c-9.076 0-16.441 7.364-16.441 16.441s7.364 16.441 16.441 16.441c9.077 0 16.441-7.364 16.441-16.441s-7.364-16.441-16.441-16.441zm0 27.105c-5.888 0-10.665-4.776-10.665-10.665S26.23 21.34 32.119 21.34c5.889 0 10.665 4.776 10.665 10.665S38.008 42.67 32.119 42.67zM53.048 14.916a3.838 3.838 0 1 1-7.676 0 3.838 3.838 0 0 1 7.676 0z"/>
    </symbol>
    <symbol id="icon-Icon-1" viewBox="0 0 151 64">
      <path fill="#f4f4fd" style="fill: var(--color1, #f4f4fd)" d="M2.286 0.286h146.286c1.105 0 2 0.895 2 2v59.429c0 1.105-0.895 2-2 2h-146.286c-1.105 0-2-0.895-2-2v-59.429c0-1.105 0.895-2 2-2z"></path>
      <path fill="#2e2f42" style="fill: var(--color3, #2e2f42)" d="M92.312 38.969l-9.649-9.72 1.071-5.274c0.277 0.107 0.57 0.164 0.867 0.166h0.007c0.009 0 0.019 0 0.029 0 1.363 0 2.467-1.105 2.467-2.467s-1.105-2.467-2.467-2.467c-1.363 0-2.467 1.105-2.467 2.467 0 0.297 0.052 0.581 0.148 0.844l-0.005-0.017-5.669 0.691-9.247-9.294c-0.109-0.112-0.262-0.182-0.43-0.183h-0c-0.16 0.001-0.313 0.065-0.427 0.177l-1.729 1.719c-0.11 0.11-0.179 0.263-0.179 0.431s0.068 0.321 0.179 0.431v0l0.93 0.943c-1.306 2.357-2.075 5.168-2.075 8.159 0 4.692 1.892 8.942 4.956 12.029l-0.001-0.001c0.049 0.046 0.105 0.084 0.167 0.111-0.037 0.187-0.058 0.403-0.059 0.624v7.072h-7.314c-1.682 0.002-3.046 1.365-3.048 3.047v1.219c0 0.337 0.273 0.61 0.61 0.61h28.038c0.337 0 0.609-0.273 0.609-0.61v-1.219c-0.002-1.682-1.365-3.045-3.047-3.047h-7.314v-3.134c1.146 0.24 2.313 0.363 3.484 0.366 2.948-0.003 5.72-0.758 8.134-2.083l-0.088 0.044 0.935 0.941c0.114 0.115 0.269 0.182 0.431 0.183 0.16-0.001 0.313-0.065 0.426-0.177l1.729-1.719c0.111-0.11 0.179-0.263 0.179-0.431s-0.068-0.321-0.179-0.431v0zM83.749 20.838c0.22-0.219 0.524-0.354 0.859-0.354 0.673 0 1.219 0.546 1.219 1.219s-0.546 1.219-1.219 1.219c-0 0-0 0-0 0h-0.003c-0.671-0.003-1.213-0.548-1.213-1.219 0-0.338 0.138-0.644 0.36-0.864l0-0h-0.002zM82.314 24.843l-0.684 3.366-1.343-1.351 2.027-2.015zM81.621 23.813l-2.194 2.181-1.698-1.707 3.892-0.474zM84.576 46.629c1.010 0 1.829 0.819 1.829 1.829v0.61h-26.819v-0.61c0-1.010 0.819-1.829 1.829-1.829v0h23.162zM76.043 44.19v1.219h-6.095v-1.219h6.095zM69.947 42.971v-4.633c0-1.478 1.367-2.682 3.047-2.682s3.048 1.203 3.048 2.682v4.633h-6.095zM77.262 41.033v-2.694c0-2.151-1.914-3.901-4.267-3.901-0.020-0-0.043-0.001-0.067-0.001-1.546 0-2.903 0.808-3.672 2.024l-0.010 0.018c-2.697-2.836-4.356-6.681-4.356-10.914 0-2.645 0.648-5.138 1.793-7.33l-0.042 0.087 21.259 21.381c-2.083 1.082-4.548 1.717-7.161 1.717-1.233 0-2.433-0.141-3.584-0.408l0.107 0.021zM90.163 40.251l-0.859-0.863-23.206-23.343 0.862-0.859 9.069 9.12c0.005 0 0.007 0.007 0.011 0.011l14.988 15.075-0.865 0.859z"></path>
      <path fill="#4d5ae5" style="fill: var(--color2, #4d5ae5)" d="M73.001 36.876h-0.006c-0.001 0-0.002 0-0.003 0-1.010 0-1.829 0.819-1.829 1.829s0.817 1.827 1.826 1.829h0.005c0.001 0 0.002 0 0.003 0 1.010 0 1.829-0.819 1.829-1.829s-0.817-1.827-1.826-1.829h-0zM73.427 39.137c-0.11 0.11-0.262 0.178-0.43 0.178-0.337 0-0.61-0.273-0.61-0.61s0.272-0.608 0.607-0.61h0c0.335 0.002 0.606 0.274 0.606 0.61 0 0.169-0.069 0.322-0.179 0.432v0h0.006z"></path>
    </symbol>
    <symbol id="icon-Icon-2" viewBox="0 0 151 64">
      <path fill="#f4f4fd" style="fill: var(--color1, #f4f4fd)" d="M2.286 0.286h146.286c1.105 0 2 0.895 2 2v59.429c0 1.105-0.895 2-2 2h-146.286c-1.105 0-2-0.895-2-2v-59.429c0-1.105 0.895-2 2-2z"></path>
      <path fill="#2e2f42" style="fill: var(--color3, #2e2f42)" d="M92.91 31.201c-0.002-9.659-7.834-17.489-17.494-17.487s-17.489 7.834-17.487 17.495c0.002 7.758 5.054 14.335 12.047 16.623l0.124 0.035c0.069 0.022 0.141 0.033 0.213 0.033 0.138 0 0.273-0.037 0.391-0.107 0.154-0.091 0.27-0.237 0.324-0.407l4.417-14c1.203-0.007 2.175-0.983 2.175-2.186 0-1.207-0.979-2.186-2.186-2.186-0.004 0-0.008 0-0.012 0h0.001c-0.341 0.001-0.663 0.082-0.95 0.224l0.013-0.006-5.835-5.836c-0.132-0.132-0.314-0.213-0.515-0.213-0.402 0-0.729 0.326-0.729 0.729 0 0.201 0.082 0.384 0.214 0.515v0l5.833 5.839c-0.138 0.275-0.219 0.6-0.219 0.944 0 0.687 0.324 1.299 0.827 1.691l0.005 0.004-4.209 13.341c-8.318-3.064-12.577-12.29-9.513-20.608s12.29-12.576 20.608-9.513c8.317 3.064 12.576 12.291 9.513 20.608-1.537 4.093-4.576 7.321-8.428 9.072l-0.101 0.041-0.455-2.142c-0.072-0.333-0.363-0.578-0.712-0.578-0.187 0-0.357 0.070-0.486 0.186l0.001-0.001-4.385 3.915c-0.15 0.134-0.244 0.328-0.244 0.544 0 0.324 0.211 0.598 0.503 0.693l0.005 0.001 5.598 1.787c0.067 0.022 0.144 0.035 0.223 0.035 0.402 0 0.729-0.326 0.729-0.729 0-0.054-0.006-0.106-0.017-0.157l0.001 0.005-0.447-2.102c6.317-2.713 10.661-8.881 10.661-16.064 0-0.013 0-0.027-0-0.040v0.002zM75.419 30.473c0.403 0 0.729 0.327 0.729 0.729s-0.327 0.729-0.729 0.729v0c-0.403 0-0.729-0.327-0.729-0.729s0.327-0.729 0.729-0.729v0zM77.82 47.46l2.496-2.226 0.689 3.246-3.185-1.019z"></path>
      <path fill="#4d5ae5" style="fill: var(--color2, #4d5ae5)" d="M74.691 17.354v1.457c0 0.403 0.326 0.729 0.729 0.729s0.729-0.326 0.729-0.729v0-1.457c-0.011-0.394-0.333-0.709-0.729-0.709s-0.718 0.315-0.729 0.708v0.001zM61.573 30.473c-0.402 0-0.729 0.326-0.729 0.729s0.326 0.729 0.729 0.729h1.458c0.402 0 0.729-0.326 0.729-0.729s-0.326-0.729-0.729-0.729h-1.458zM89.266 31.93c0.402 0 0.729-0.326 0.729-0.729s-0.326-0.729-0.729-0.729h-1.458c-0.402 0-0.729 0.326-0.729 0.729s0.326 0.729 0.729 0.729h1.458z"></path>
    </symbol>
    <symbol id="icon-Icon-3" viewBox="0 0 151 64">
      <path fill="#f4f4fd" style="fill: var(--color1, #f4f4fd)" d="M2.286 0.286h146.286c1.105 0 2 0.895 2 2v59.429c0 1.105-0.895 2-2 2h-146.286c-1.105 0-2-0.895-2-2v-59.429c0-1.105 0.895-2 2-2z"></path>
      <path fill="#4d5ae5" style="fill: var(--color2, #4d5ae5)" d="M74.201 30.817h1.218v5.482h-1.218v-5.482zM79.074 33.254h1.218v3.046h-1.218v-3.046zM69.327 35.081h1.218v1.218h-1.218v-1.218zM65.672 34.472h1.218v1.827h-1.218v-1.827z"></path>
      <path fill="#2e2f42" style="fill: var(--color3, #2e2f42)" d="M58.97 46.047h29.242c1.009 0 1.827-0.818 1.827-1.827v0-2.437c0-1.009-0.818-1.827-1.827-1.827v0h-0.61v-15.193l3.461-3.278c0.237 0.12 0.517 0.19 0.813 0.19 1.015 0 1.838-0.823 1.838-1.838s-0.823-1.838-1.838-1.838c-1.015 0-1.838 0.823-1.838 1.838 0 0.282 0.064 0.549 0.177 0.788l-0.005-0.011-2.607 2.471v-1.406c0-1.009-0.818-1.827-1.827-1.827h-24.368c-1.010 0-1.828 0.818-1.828 1.828v0 18.275h-0.609c-1.009 0-1.827 0.818-1.827 1.827 0 0 0 0 0 0.001v0 2.437c0 1.009 0.818 1.827 1.827 1.827v0zM91.867 19.242c0.336 0 0.609 0.273 0.609 0.609s-0.273 0.609-0.609 0.609v0c-0.336 0-0.609-0.273-0.609-0.609s0.273-0.609 0.609-0.609v0zM60.798 21.679c0-0.337 0.273-0.61 0.609-0.61h24.368c0.337 0 0.609 0.273 0.609 0.61v2.558l-1.218 1.158v-2.498c0-0.337-0.273-0.609-0.609-0.609h-21.931c-0.337 0-0.609 0.273-0.609 0.609v15.23c0 0.337 0.273 0.61 0.609 0.61h21.931c0.337 0 0.609-0.273 0.609-0.61v-11.056l1.218-1.154v14.038h-25.586v-18.275zM66.281 29.598c-0.001 0-0.003 0-0.005 0-1.009 0-1.827 0.818-1.827 1.827s0.818 1.827 1.827 1.827c0.494 0 0.942-0.196 1.271-0.514l-0.001 0.001 2.118 1.063c0.246 0.123 0.545 0.065 0.727-0.141l4.501-5.065 4.425 3.316c0.238 0.178 0.569 0.159 0.784-0.045l3.846-3.643v9.293h-20.713v-14.011h20.713v3.040l-4.31 4.082-4.462-3.346c-0.1-0.076-0.228-0.122-0.365-0.122-0.181 0-0.343 0.079-0.455 0.204l-0.001 0.001-4.563 5.134-1.706-0.853c0.013-0.073 0.021-0.147 0.023-0.221 0-1.009-0.818-1.827-1.827-1.827v0zM66.89 31.426c0 0.006 0 0.012 0 0.019 0 0.337-0.273 0.61-0.61 0.61s-0.61-0.273-0.61-0.61c0-0.007 0-0.013 0-0.020v0.001c0.010-0.329 0.279-0.591 0.609-0.591s0.599 0.262 0.609 0.59v0.001zM70.545 41.173h6.092v0.609c0 0.337-0.273 0.609-0.609 0.609h-4.874c-0.336-0-0.609-0.273-0.609-0.609v0-0.609zM58.361 41.782c0-0.337 0.273-0.609 0.609-0.609h10.357v0.609c0 1.009 0.818 1.827 1.827 1.827v0h4.874c1.009 0 1.828-0.818 1.828-1.827v0-0.609h10.357c0.336 0 0.609 0.273 0.609 0.609v2.437c0 0.336-0.273 0.609-0.609 0.609h-29.242c-0.336-0-0.609-0.273-0.609-0.609v0-2.437z"></path>
    </symbol>
    <symbol id="icon-Icon-4" viewBox="0 0 151 64">
      <path fill="#f4f4fd" style="fill: var(--color1, #f4f4fd)" d="M2.286 0.286h146.286c1.105 0 2 0.895 2 2v59.429c0 1.105-0.895 2-2 2h-146.286c-1.105 0-2-0.895-2-2v-59.429c0-1.105 0.895-2 2-2z"></path>
      <path fill="#4d5ae5" style="fill: var(--color2, #4d5ae5)" d="M93.685 18.885c-0.073-0.218-0.26-0.379-0.489-0.414l-0.003-0-2.183-0.318-0.977-1.978c-0.205-0.417-0.889-0.417-1.093 0l-0.977 1.978-2.183 0.318c-0.232 0.035-0.419 0.196-0.491 0.41l-0.001 0.004c-0.071 0.221-0.012 0.463 0.154 0.625l1.581 1.54-0.373 2.175c-0.039 0.229 0.055 0.459 0.242 0.596 0.19 0.138 0.437 0.155 0.642 0.046l1.953-1.027 1.953 1.027c0.082 0.044 0.18 0.071 0.284 0.071 0.135 0 0.259-0.044 0.359-0.118l-0.002 0.001c0.187-0.137 0.282-0.368 0.242-0.597l-0.373-2.175 1.581-1.541c0.113-0.111 0.183-0.266 0.183-0.437 0-0.067-0.011-0.132-0.031-0.192l0.001 0.004zM90.87 20.401c-0.143 0.139-0.209 0.342-0.175 0.539l0.218 1.273-1.143-0.601c-0.082-0.044-0.18-0.070-0.284-0.070s-0.202 0.026-0.287 0.072l0.003-0.002-1.143 0.601 0.218-1.273c0.006-0.031 0.009-0.067 0.009-0.103 0-0.171-0.070-0.325-0.184-0.436l-0-0-0.926-0.902 1.279-0.186c0.199-0.029 0.37-0.154 0.459-0.334l0.572-1.158 0.571 1.158c0.089 0.179 0.261 0.305 0.459 0.333l1.278 0.186-0.925 0.902zM87.010 37.168h-1.219v1.219h1.219v-1.219zM87.010 39.606h-1.219v1.219h1.219v-1.22zM88.229 38.387h-1.219v1.219h1.219v-1.219zM85.791 38.387h-1.219v1.219h1.219v-1.219zM82.743 43.873h-1.219v1.219h1.219v-1.219zM82.743 46.311h-1.219v1.219h1.219v-1.219zM83.962 45.092h-1.219v1.219h1.219v-1.22zM81.524 45.092h-1.219v1.219h1.219v-1.22zM75.429 41.435h-1.219v1.219h1.219v-1.22zM75.429 43.873h-1.219v1.219h1.219v-1.219zM76.647 42.654h-1.219v1.219h1.219v-1.219zM74.21 42.654h-1.219v1.219h1.219v-1.219zM63.847 20.711h-1.219v1.219h1.219v-1.219zM63.847 23.149h-1.219v1.219h1.219v-1.219zM65.066 21.93h-1.219v1.219h1.219v-1.219zM62.629 21.93h-1.219v1.219h1.219v-1.219z"></path>
      <path fill="#2e2f42" style="fill: var(--color3, #2e2f42)" d="M85.389 29.897c-0.32-0.43-0.799-0.727-1.348-0.805l-0.011-0.001c-0.087-0.013-0.188-0.021-0.29-0.021-0.47 0-0.902 0.159-1.246 0.427l0.005-0.003-1.431 1.097-2.169 1.62-1.551-0.618c2.767-1.241 4.701-4.009 4.701-7.223 0-4.369-3.569-7.924-7.955-7.924s-7.956 3.555-7.956 7.924c0 1.583 0.474 3.057 1.281 4.295l-3.165-0.027c-0.010 0-0.018 0.005-0.027 0.006-0.064 0.003-0.125 0.016-0.181 0.037l0.004-0.001c-0.015 0.006-0.030 0.009-0.044 0.015-0.007 0.003-0.014 0.003-0.022 0.007l-3.696 1.825-2.164 1.041c-0.028 0.012-0.051 0.026-0.074 0.041l0.002-0.001c-0.552 0.37-0.91 0.991-0.91 1.696 0 0.909 0.596 1.679 1.418 1.94l0.014 0.004c0.184 0.060 0.395 0.095 0.614 0.095 0.352 0 0.683-0.090 0.972-0.247l-0.011 0.005 1.586-0.843 2.587-1.337 1.551-0.009-7.751 7.714c-0.346 0.342-0.561 0.816-0.561 1.341 0 0.002 0 0.004 0 0.006v-0c0.002 1.051 0.854 1.902 1.905 1.902 0.001 0 0.002 0 0.004 0h-0c0.489 0 0.977-0.185 1.349-0.554l1.502-1.496 1.99-1.486 1.029 1.025-3.545 3.53c-0.346 0.342-0.56 0.816-0.56 1.341 0 0.002 0 0.004 0 0.005v-0c0 0.509 0.199 0.986 0.56 1.347 0.371 0.369 0.86 0.554 1.349 0.554 0.001 0 0.002 0 0.004 0 0.525 0 1-0.212 1.345-0.554l-0 0 5.13-5.111c0.007-0.007 0.018-0.010 0.025-0.018l5.904-6.466 3.967 0.564c0.023 0.003 0.050 0.005 0.077 0.005 0.080 0 0.157-0.016 0.227-0.044l-0.004 0.001c0.020-0.007 0.038-0.017 0.057-0.027 0.022-0.011 0.045-0.017 0.066-0.031l3.673-2.438c0.014-0.009 0.021-0.023 0.034-0.034 0.014-0.011 0.033-0.016 0.046-0.029l1.453-1.362c0.397-0.372 0.644-0.9 0.644-1.485 0-0.457-0.151-0.879-0.406-1.219l0.004 0.005zM59.578 34.023c-0.198 0.106-0.423 0.127-0.638 0.059-0.337-0.106-0.577-0.416-0.577-0.781 0-0.27 0.13-0.509 0.332-0.657l0.002-0.002 1.502-0.722 0.361 1.057 0.152 0.443-1.134 0.603zM63.574 31.934l-1.769 0.914-0.292-0.853-0.21-0.614 2.316-1.143-0.045 1.695zM80.831 24.368c0 1.050-0.25 2.040-0.685 2.925l-4.779-2.17c-0.049-0.657-0.391-1.226-0.894-1.582l-0.007-0.004 1.673-5.554c2.717 0.864 4.691 3.399 4.691 6.386zM67.358 24.368c0-3.697 3.022-6.705 6.737-6.705 0.289 0 0.571 0.024 0.851 0.059l-1.637 5.433c-0.022 0-0.043-0.006-0.065-0.006-0 0-0.001 0-0.001 0-1.179 0-2.136 0.954-2.139 2.133v0c0.003 1.179 0.96 2.133 2.139 2.133 0 0 0.001 0 0.001 0h-0c0.794 0 1.479-0.438 1.849-1.079l4.414 2.006c-1.228 1.653-3.194 2.731-5.413 2.731-3.714 0-6.737-3.008-6.737-6.705zM74.165 25.282c0 0.504-0.414 0.914-0.921 0.914-0.001 0-0.001 0-0.002 0-0.506 0-0.916-0.409-0.919-0.914v-0c0-0.504 0.413-0.914 0.921-0.914s0.921 0.41 0.921 0.914zM59.96 42.453c-0.126 0.124-0.298 0.2-0.488 0.2s-0.363-0.076-0.488-0.2l0 0c-0.124-0.123-0.201-0.294-0.201-0.482s0.077-0.359 0.201-0.482l0-0 1.099-1.095 0.973 0.969-1.095 1.091zM63.633 46.719c-0.125 0.124-0.298 0.201-0.489 0.201s-0.363-0.077-0.488-0.2l0 0c-0.125-0.123-0.202-0.294-0.202-0.482s0.077-0.359 0.202-0.482l0-0 1.1-1.096 0.973 0.969-1.097 1.091zM67.612 42.755c-0.001 0-0.001 0-0.002 0.001l-2.017 2.011-0.974-0.969 2.015-2.007c0.001 0 0.001 0 0.002-0.001 0.046-0.046 0.074-0.101 0.102-0.154 0.008-0.016 0.023-0.030 0.030-0.046 0.019-0.047 0.022-0.098 0.029-0.147 0.003-0.028 0.016-0.054 0.016-0.083 0-0.041-0.015-0.080-0.023-0.121-0.007-0.037-0.007-0.074-0.021-0.109-0.023-0.057-0.063-0.108-0.105-0.157-0.011-0.014-0.015-0.031-0.029-0.043h-0.001l-0.001-0.002-1.837-1.829c-0.019-0.019-0.045-0.027-0.066-0.044-0.029-0.024-0.062-0.046-0.096-0.064l-0.003-0.002c-0.030-0.014-0.066-0.027-0.103-0.036l-0.004-0.001c-0.034-0.011-0.074-0.019-0.115-0.023l-0.002-0c-0.007-0-0.015-0.001-0.024-0.001-0.030 0-0.060 0.002-0.089 0.007l0.003-0c-0.044 0.004-0.084 0.012-0.123 0.024l0.004-0.001c-0.041 0.015-0.077 0.032-0.11 0.053l0.002-0.001c-0.023 0.013-0.049 0.017-0.070 0.033l-2.027 1.513-1.029-1.025 2.742-2.727 4.983 4.902-1.060 1.050zM75.405 34.736c-0.017-0.002-0.034 0.005-0.051 0.003-0.009-0.001-0.020-0.001-0.032-0.001-0.072 0-0.141 0.012-0.205 0.034l0.004-0.001c-0.042 0.015-0.079 0.033-0.113 0.055l0.002-0.001c-0.036 0.021-0.067 0.045-0.095 0.071l0-0c-0.015 0.013-0.033 0.019-0.046 0.033l-5.37 5.881-4.946-4.865 3.238-3.221c0.111-0.11 0.179-0.263 0.179-0.431 0-0.337-0.273-0.61-0.61-0.61-0.001 0-0.002 0-0.003 0h0l-2.535 0.015 0.031-1.837 3.547 0.030c1.444 1.482 3.459 2.401 5.689 2.401 0.001 0 0.003 0 0.004 0h-0c0.5 0 0.987-0.051 1.462-0.14 0.046 0.037 0.091 0.074 0.148 0.097l2.754 1.097 0.174 0.866 0.204 1.011-3.432-0.488zM80.023 34.94l-0.358-1.781 1.653-1.234 1.082 1.436-2.377 1.579zM84.313 31.705l-0.958 0.897-1.064-1.413 0.95-0.728c0.177-0.137 0.401-0.192 0.62-0.163 0.221 0.031 0.416 0.146 0.549 0.325 0.1 0.134 0.161 0.303 0.161 0.487 0 0.235-0.099 0.447-0.258 0.596l-0 0z"></path>
      <path fill="#2e2f42" style="fill: var(--color3, #2e2f42)" d="M72.688 34.907l-2.449-2.438c-0.11-0.11-0.262-0.178-0.43-0.178s-0.32 0.068-0.43 0.178v0l-2.449 2.438c-0.11 0.111-0.178 0.264-0.178 0.432s0.068 0.321 0.178 0.432v0l2.449 2.438c0.11 0.11 0.262 0.178 0.43 0.178s0.32-0.068 0.43-0.178v0l2.449-2.438c0.111-0.111 0.179-0.264 0.179-0.432s-0.068-0.322-0.179-0.432v0zM69.809 36.918l-1.585-1.578 1.585-1.578 1.586 1.578-1.586 1.578zM76.759 19.51l-0.295 1.183c0.081 0.020 1.986 0.517 1.986 2.456h1.219c0-2.306-1.903-3.389-2.91-3.64zM79.67 24.368h-1.219v1.219h1.219v-1.219z"></path>
    </symbol>
  </defs>
</svg>
